<?xml version="1.0" encoding="UTF-8" standalone="no"?>
<!-- Created with Inkscape (http://www.inkscape.org/) -->

<svg
   xmlns:dc="http://purl.org/dc/elements/1.1/"
   xmlns:cc="http://creativecommons.org/ns#"
   xmlns:rdf="http://www.w3.org/1999/02/22-rdf-syntax-ns#"
   xmlns:svg="http://www.w3.org/2000/svg"
   xmlns="http://www.w3.org/2000/svg"
   xmlns:xlink="http://www.w3.org/1999/xlink"
   xmlns:sodipodi="http://sodipodi.sourceforge.net/DTD/sodipodi-0.dtd"
   xmlns:inkscape="http://www.inkscape.org/namespaces/inkscape"
   width="100.91964mm"
   height="70mm"
   viewBox="0 0 100.91964 70"
   version="1.1"
   id="svg992"
   inkscape:version="0.92.5 (2060ec1f9f, 2020-04-08)"
   sodipodi:docname="paint-smoothness-1-old.svg">
  <defs
     id="defs986">
    <linearGradient
       inkscape:collect="always"
       id="linearGradient1001">
      <stop
         style="stop-color:#000080;stop-opacity:1"
         offset="0"
         id="stop997" />
      <stop
         style="stop-color:#800080;stop-opacity:1"
         offset="1"
         id="stop999" />
    </linearGradient>
    <linearGradient
       inkscape:collect="always"
       xlink:href="#linearGradient1001"
       id="linearGradient1003"
       x1="67.657738"
       y1="137.49405"
       x2="168.57738"
       y2="137.49405"
       gradientUnits="userSpaceOnUse" />
  </defs>
  <sodipodi:namedview
     id="base"
     pagecolor="#ffffff"
     bordercolor="#666666"
     borderopacity="1.0"
     inkscape:pageopacity="0.0"
     inkscape:pageshadow="2"
     inkscape:zoom="1.979899"
     inkscape:cx="-47.525308"
     inkscape:cy="33.613726"
     inkscape:document-units="mm"
     inkscape:current-layer="layer1"
     showgrid="false"
     inkscape:window-width="1920"
     inkscape:window-height="1137"
     inkscape:window-x="127"
     inkscape:window-y="1496"
     inkscape:window-maximized="1" />
  <metadata
     id="metadata989">
    <rdf:RDF>
      <cc:Work
         rdf:about="">
        <dc:format>image/svg+xml</dc:format>
        <dc:type
           rdf:resource="http://purl.org/dc/dcmitype/StillImage" />
        <dc:title></dc:title>
      </cc:Work>
    </rdf:RDF>
  </metadata>
  <g
     inkscape:label="Layer 1"
     inkscape:groupmode="layer"
     id="layer1"
     transform="translate(-67.657734,-67.494049)">
    <path
       style="fill:url(#linearGradient1003);fill-opacity:1;stroke:none;stroke-width:0.26499999;stroke-miterlimit:4;stroke-dasharray:none"
       d="M 168.57737,137.49405 H 67.657734 c 0,-3.15735 8.638349,-4.36909 9.310519,-7.34633 0.67217,-2.97725 -6.621839,-7.72001 -5.345136,-10.45584 1.276703,-2.73584 14.197718,3.35061 16.011316,0.91749 1.813599,-2.43312 -7.480219,-13.38583 -5.197361,-15.45493 2.282857,-2.06911 13.603329,9.28896 16.287809,7.64517 2.684479,-1.64378 -3.267033,-16.289425 -0.248569,-17.446587 3.018468,-1.157161 10.329688,13.713217 13.614508,13.103987 3.28481,-0.60923 2.54321,-16.69808 6.02673,-16.69808 3.48352,0 3.94464,15.68794 7.22945,16.29717 3.28482,0.60923 9.39332,-13.86024 12.41179,-12.703079 3.01846,1.157162 -1.46306,13.664649 1.22142,15.308429 2.68448,1.6438 12.53496,-7.57612 14.81782,-5.50701 2.28286,2.0691 -5.67461,11.01728 -3.86101,13.45041 1.81359,2.43312 13.39826,-1.64881 14.67497,1.08703 1.2767,2.73583 -10.56089,7.61222 -9.88872,10.58947 0.67217,2.97724 13.8541,4.05535 13.8541,7.2127 z"
       id="path994"
       inkscape:connector-curvature="0"
       sodipodi:nodetypes="ccsssssssssssssssc" />
  </g>
</svg>
